<?xml version="1.0" encoding="utf-8"?>
<!-- Generator: Adobe Illustrator 24.1.1, SVG Export Plug-In . SVG Version: 6.00 Build 0)  -->
<svg version="1.1" id="Layer_1" xmlns="http://www.w3.org/2000/svg" xmlns:xlink="http://www.w3.org/1999/xlink" x="0px" y="0px"
	 viewBox="0 0 512 512" style="enable-background:new 0 0 512 512;" xml:space="preserve">
<style type="text/css">
	.st0{fill:#111111;}
	.st1{fill:none;stroke:#012C3D;stroke-width:35;stroke-linecap:round;stroke-linejoin:round;}
	.st2{fill:none;stroke:#00C9EB;stroke-width:35;stroke-linecap:round;stroke-linejoin:round;}
</style>
<path class="st0" d="M92.5,0h326.9C470.6,0,512,41.4,512,92.5v326.9c0,51.1-41.4,92.5-92.5,92.5H92.5C41.4,512,0,470.6,0,419.5V92.5
	C0,41.4,41.4,0,92.5,0z"/>
<g>
	<path class="st1" d="M278.9,150.3c0.5-27.9-21.7-50.8-49.6-51.3s-50.8,21.7-51.3,49.6c0,0.5,0,0.9,0,1.4c0,0.8,0,1.6,0.1,2.4
		c-36,9.3-57.6,45.9-48.4,81.9c1.4,5.2,3.3,10.3,5.9,15.1c-28.8,23.4-33.2,65.8-9.7,94.6c5.3,6.5,11.8,12,19.1,16.1
		c-4.8,36.8,21.1,70.6,57.9,75.4s70.6-21.1,75.4-57.9c0-0.1,0-0.2,0-0.3c0.4-2.8,0.6-5.7,0.6-8.5V150.3z"/>
	<path class="st1" d="M228.5,284.8c28.9-10.2,48.8-36.7,50.4-67.2"/>
	<path class="st1" d="M178.1,152.4c0.3,8.1,2.6,16.1,6.7,23.1"/>
	<path class="st1" d="M135.6,249.4c3.1-2.5,6.4-4.7,9.8-6.7"/>
	<path class="st1" d="M178,368.8c-11.6,0-22.9-3-33-8.7"/>
	<path class="st1" d="M278.9,284.8h67.2"/>
	<path class="st1" d="M278.9,368.8h100.9c18.6,0,33.6,15.1,33.6,33.6v16.8"/>
	<path class="st1" d="M278.9,200.7h134.5"/>
	<path class="st1" d="M346.1,200.7v-50.4c0-18.6,15.1-33.6,33.6-33.6"/>
	<circle class="st1" cx="346.1" cy="284.8" r="8.4"/>
	<circle class="st1" cx="379.8" cy="116.7" r="8.4"/>
	<circle class="st1" cx="413.4" cy="419.3" r="8.4"/>
	<circle class="st1" cx="413.4" cy="200.7" r="8.4"/>
</g>
<path class="st2" d="M211.5,265.8c28.9-10.2,48.8-36.7,50.4-67.2"/>
<path class="st2" d="M161.1,133.4c0.3,8.1,2.6,16.1,6.7,23.1"/>
<path class="st2" d="M118.6,230.4c3.1-2.5,6.4-4.7,9.8-6.7"/>
<path class="st2" d="M161,349.8c-11.6,0-22.9-3-33-8.7"/>
<path class="st2" d="M261.9,265.8h67.2"/>
<path class="st2" d="M261.9,131.3c0.5-27.9-21.7-50.8-49.6-51.3s-50.8,21.7-51.3,49.6c0,0.5,0,0.9,0,1.4c0,0.8,0,1.6,0.1,2.4
	c-36,9.3-57.6,45.9-48.4,81.9c1.4,5.2,3.3,10.3,5.9,15.1c-28.8,23.4-33.2,65.8-9.7,94.6c5.3,6.5,11.8,12,19.1,16.1
	c-4.8,36.8,21.1,70.6,57.9,75.4s70.6-21.1,75.4-57.9c0-0.1,0-0.2,0-0.3c0.4-2.8,0.6-5.7,0.6-8.5V131.3z"/>
<path class="st2" d="M261.9,349.8h100.9c18.6,0,33.6,15.1,33.6,33.6v16.8"/>
<path class="st2" d="M261.9,181.7h134.5"/>
<path class="st2" d="M329.1,181.7v-50.4c0-18.6,15.1-33.6,33.6-33.6"/>
<circle class="st2" cx="329.1" cy="265.8" r="8.4"/>
<circle class="st2" cx="362.8" cy="97.7" r="8.4"/>
<circle class="st2" cx="396.4" cy="400.3" r="8.4"/>
<circle class="st2" cx="396.4" cy="181.7" r="8.4"/>
</svg>
