<svg id="Layer_1" data-name="Layer 1" xmlns="http://www.w3.org/2000/svg" viewBox="0 0 512 512"><defs><style>.cls-1{fill:#111;}.cls-2,.cls-3{fill:none;stroke-linecap:round;stroke-linejoin:round;stroke-width:35px;}.cls-2{stroke:#1a1a1a;}.cls-3{stroke:#00c9eb;}</style></defs><rect class="cls-1" width="512" height="512" rx="92.54"/><path class="cls-2" d="M278.89,150.28A50.45,50.45,0,1,0,178,150c0,.8,0,1.6.05,2.4a67.27,67.27,0,0,0-42.47,97A67.24,67.24,0,0,0,145,360.13a67.24,67.24,0,1,0,133.33,17.55c0-.1,0-.21,0-.31a66,66,0,0,0,.56-8.55Z"/><path class="cls-2" d="M228.46,284.77a75.65,75.65,0,0,0,50.43-67.24"/><path class="cls-2" d="M178.08,152.39a50.29,50.29,0,0,0,6.69,23.11"/><path class="cls-2" d="M135.61,249.4a68.27,68.27,0,0,1,9.84-6.66"/><path class="cls-2" d="M178,368.82a67.18,67.18,0,0,1-33-8.67"/><path class="cls-2" d="M278.89,284.77h67.24"/><path class="cls-2" d="M278.89,368.82H379.75a33.62,33.62,0,0,1,33.62,33.62v16.81"/><path class="cls-2" d="M278.89,200.72H413.37"/><path class="cls-2" d="M346.13,200.72V150.28a33.62,33.62,0,0,1,33.62-33.62"/><circle class="cls-2" cx="346.13" cy="284.77" r="8.41"/><circle class="cls-2" cx="379.75" cy="116.66" r="8.41"/><circle class="cls-2" cx="413.37" cy="419.25" r="8.41"/><circle class="cls-2" cx="413.37" cy="200.72" r="8.41"/><path class="cls-3" d="M211.46,265.77a75.65,75.65,0,0,0,50.43-67.24"/><path class="cls-3" d="M161.08,133.39a50.29,50.29,0,0,0,6.69,23.11"/><path class="cls-3" d="M118.61,230.4a68.27,68.27,0,0,1,9.84-6.66"/><path class="cls-3" d="M161,349.82a67.18,67.18,0,0,1-33-8.67"/><path class="cls-3" d="M261.89,265.77h67.24"/><path class="cls-3" d="M261.89,131.28A50.45,50.45,0,1,0,161,131c0,.8,0,1.6.05,2.4a67.27,67.27,0,0,0-42.47,97A67.24,67.24,0,0,0,128,341.13a67.24,67.24,0,0,0,133.33,17.55c0-.1,0-.21,0-.31a66,66,0,0,0,.56-8.55Z"/><path class="cls-3" d="M261.89,349.82H362.75a33.62,33.62,0,0,1,33.62,33.62v16.81"/><path class="cls-3" d="M261.89,181.72H396.37"/><path class="cls-3" d="M329.13,181.72V131.28a33.62,33.62,0,0,1,33.62-33.62"/><circle class="cls-3" cx="329.13" cy="265.77" r="8.41"/><circle class="cls-3" cx="362.75" cy="97.66" r="8.41"/><circle class="cls-3" cx="396.37" cy="400.25" r="8.41"/><circle class="cls-3" cx="396.37" cy="181.72" r="8.41"/></svg>